<?xml version="1.0" encoding="utf-8"?>
<!-- Generator: Adobe Illustrator 28.3.0, SVG Export Plug-In . SVG Version: 6.00 Build 0)  -->
<svg version="1.1" id="레이어_1" xmlns="http://www.w3.org/2000/svg" xmlns:xlink="http://www.w3.org/1999/xlink" x="0px"
	 y="0px" viewBox="0 0 150 150" style="enable-background:new 0 0 150 150;" xml:space="preserve">
<style type="text/css">
	.st0{fill:#222222;}
</style>
<path class="st0" d="M82.1,74.3l64.2-59.5c2-1.9,2.1-5.1,0.3-7.1c-1.9-2-5.1-2.1-7.1-0.3l-64.7,60L10,7.5C8,5.6,4.8,5.7,3,7.8
	c-1.9,2-1.8,5.2,0.3,7.1l64.2,59.5L3.2,133.8c-2,1.9-2.1,5.1-0.3,7.1c1,1.1,2.3,1.6,3.7,1.6c1.2,0,2.4-0.4,3.4-1.3l64.7-60l64.7,60
	c1,0.9,2.2,1.3,3.4,1.3c1.3,0,2.7-0.5,3.7-1.6c1.9-2,1.8-5.2-0.3-7.1L82.1,74.3z"/>
</svg>
