<?xml version="1.0" encoding="utf-8"?>
<!-- Generator: Adobe Illustrator 28.3.0, SVG Export Plug-In . SVG Version: 6.00 Build 0)  -->
<svg version="1.1" id="레이어_1" xmlns="http://www.w3.org/2000/svg" xmlns:xlink="http://www.w3.org/1999/xlink" x="0px"
	 y="0px" viewBox="0 0 150 150" style="enable-background:new 0 0 150 150;" xml:space="preserve">
<style type="text/css">
	.st0{fill:#222222;}
</style>
<g>
	<path class="st0" d="M143.1,143.2H6.5c-2.8,0-5-2.3-5-5s2.3-5,5-5h136.6c2.8,0,5,2.3,5,5S145.9,143.2,143.1,143.2z"/>
</g>
<g>
	<path class="st0" d="M143.1,80.8H6.5c-2.8,0-5-2.3-5-5c0-2.8,2.3-5,5-5h136.6c2.8,0,5,2.3,5,5C148.2,78.5,145.9,80.8,143.1,80.8z"
		/>
</g>
<g>
	<path class="st0" d="M143.1,15.8H6.5c-2.8,0-5-2.3-5-5s2.3-5,5-5h136.6c2.8,0,5,2.3,5,5S145.9,15.8,143.1,15.8z"/>
</g>
</svg>
