<?xml version="1.0" encoding="utf-8"?>
<!-- Generator: Adobe Illustrator 28.3.0, SVG Export Plug-In . SVG Version: 6.00 Build 0)  -->
<svg version="1.1" id="레이어_1" xmlns="http://www.w3.org/2000/svg" xmlns:xlink="http://www.w3.org/1999/xlink" x="0px"
	 y="0px" viewBox="0 0 150 150" style="enable-background:new 0 0 150 150;" xml:space="preserve">
<style type="text/css">
	.st0{display:none;}
	.st1{display:inline;fill:#222222;}
	.st2{display:none;fill:#222222;}
	.st3{fill:#222222;}
</style>
<g class="st0">
	<path class="st1" d="M82.1,145.4c-4.3,0-6.9,0-7,0h-1.5c-48.4-1.1-67.9-3.2-71.9-7.6c-1-1.1-1.1-2.2-1.1-3
		c0.4-5.5,6.4-11.6,10-14.8c5.6-4.9,12.2-9,17.8-10.9l0,0c21-7.3,25.3-13.2,25.6-20.8c0.1-2-1.5-4.4-3.5-7.5
		c-4.3-6.6-10.7-16.7-9.8-35.5C42,17.7,58.5,5.5,74.3,5.5c10,0,18.8,3.4,24.6,9.6c6.6,7,9.7,17.2,9.1,30.4
		c-1.1,22.9-6.8,32.2-10.3,37.8c-1.4,2.2-2.3,3.7-2.3,5.1c-0.1,12.3,16.3,17.8,26.1,21l0.6,0.2c5.8,1.9,12.1,5.4,17,9.5
		c4.2,3.5,9.5,9.1,10.5,15.7c0.2,1.2-0.2,2.3-1,3.3C142.6,144.7,99.3,145.4,82.1,145.4z M5.6,134.5c1.2,0.8,6.3,2.7,27,4.1
		c14.2,1,30.3,1.3,41,1.6h1.5c9.1,0.2,25.7,0,40.3-0.9c22.4-1.4,27.7-3.7,28.9-4.4c-1.5-6.7-10.8-16.2-23.9-20.5l-0.6-0.2
		c-11.1-3.7-29.8-9.8-29.6-25.9c0-2.7,1.4-4.9,3.1-7.7c3.2-5.2,8.5-13.8,9.5-35.4c0.6-11.8-2-20.7-7.6-26.6c-6.6-6.9-16-8-20.9-8
		c-12.4,0-27.3,9.1-28.6,34.8c-0.8,17.1,4.8,26,9,32.4c2.4,3.7,4.4,6.9,4.3,10.5c-0.6,14.3-14.7,20.4-29,25.5l0,0
		C19.8,117.4,6.8,128.4,5.6,134.5z"/>
</g>
<path class="st2" d="M138.5,135.5L110,106.9c9.3-10.1,15-23.6,15-38.4c0-31.3-25.4-56.7-56.7-56.7S11.5,37.2,11.5,68.5
	s25.4,56.7,56.7,56.7c14.6,0,28-5.6,38.1-14.7l28.6,28.6L138.5,135.5z M16.6,68.5c0-28.5,23.2-51.6,51.6-51.6s51.6,23.2,51.6,51.6
	s-23.2,51.6-51.6,51.6S16.6,97,16.6,68.5z"/>
<g>
	<path class="st3" d="M99.7,80.5c-1.4,0-2.6,1.2-2.6,2.6v41H63.1V25.3c0-1.8-1.2-3.3-2.9-3.8L24.2,11h72.9v37.2
		c0,1.4,1.2,2.6,2.6,2.6s2.6-1.2,2.6-2.6V9.7c0-2.2-1.8-4-4-4H5.8c-2.2,0-4,1.8-4,4v115.6c0,2.1,1.6,3.7,3.6,3.9L58,144.6
		c0.4,0.1,0.8,0.2,1.1,0.2c0.8,0,1.7-0.3,2.4-0.8c1-0.8,1.6-1.9,1.6-3.2v-11.4h35.2c2.2,0,4-1.8,4-4V83.2
		C102.3,81.7,101.1,80.5,99.7,80.5z M57.9,139.1L7.6,124.5V11.6l50.3,14.6V139.1z"/>
	<path class="st3" d="M147.7,64.5l-26.1-23.4c-1.1-1-2.7-0.9-3.7,0.2c-1,1.1-0.9,2.7,0.2,3.7L139,63.7H85.1c-1.4,0-2.6,1.2-2.6,2.6
		c0,1.4,1.2,2.6,2.6,2.6h54.2l-21.1,18.9c-1.1,1-1.2,2.6-0.2,3.7c0.5,0.6,1.2,0.9,1.9,0.9c0.6,0,1.2-0.2,1.7-0.7l26-23.3
		c0.6-0.5,0.9-1.2,0.9-1.9C148.6,65.7,148.3,65,147.7,64.5z"/>
</g>
</svg>
