<?xml version="1.0" encoding="utf-8"?>
<!-- Generator: Adobe Illustrator 28.3.0, SVG Export Plug-In . SVG Version: 6.00 Build 0)  -->
<svg version="1.1" id="Lager_1" xmlns="http://www.w3.org/2000/svg" xmlns:xlink="http://www.w3.org/1999/xlink" x="0px" y="0px"
	 viewBox="0 0 275 181.4" style="enable-background:new 0 0 275 181.4;" xml:space="preserve">
<style type="text/css">
	.st0{fill:#D71718;}
</style>
<path class="st0" d="M193.3,5.5c10-4.9,14.9-4.3,15,0.7c0.1,6.5-0.8,15-1.5,21.3c-3.7,33.8-9.9,61.4-10.4,96
	c16.3-42.2,30-71.6,47.6-107.7c5.6-11.5,9.2-9.4,13.8-11.4c17.9-8,18.6-3.1,16.2,6.7c-8.7,36.1-30.9,149.7-34.3,167.2
	c-1,5.1-6.5,2.9-7.9,0.9c-6.4-8.8-13.5-8.9-12.7-14.8c4-29.2,18.4-102.3,22.1-119.6c-19.1,39.2-38.9,88.1-49.1,115.9
	c-2.2,5.9-6.1,5.5-8.5,1.1c-3.4-6.1-10.1-9.2-11.2-16.3c-3.5-22.8,4-66.2,5-93.6c-10.4,30-27.9,88.2-35.5,114.5
	c-3.2,10.9-13.7,9.1-10.9-1.5c11.6-44.2,36.7-122.2,47.5-150.3C181.1,8,187.8,8.3,193.3,5.5z"/>
<path class="st0" d="M129.9,0.1c-3.4-0.8-13.2,4.5-19.2,5.5c-1.9,0.3-3.7,2.4-4.4,3.8C96.7,31.5,88,52.6,80.6,71.8
	c-9.6,1.6-20.8,3.8-33.3,6.6c8.9-23,18-45.7,26.8-67.5C78.4,0.2,67-0.9,62.6,10C56.8,24.1,46,50.6,34.1,81.5
	c-8.8,2.2-18.1,4.6-27.9,7.4c-7.1,2-7.4,3.9-4.3,8.2c1.7,2.4,5.2,2.1,6.8,3.8c4.1,4.4,6.6,9.6,14,10.4
	c-6.6,17.6-13.2,35.8-19.2,53.3c-3.7,11,6.9,13.2,11,1.6c6.6-18.7,13.6-37.7,20.7-56.6c6-1.4,20.4-4.5,33.8-7.4
	c-10.6,29-17.6,51-20.2,61.8c-0.5,2.1,0.3,3.2,0.8,4c3.6,5.2,7,5.4,11.6,11.8c1.3,1.8,5.4,2.7,6.8-1.6c9.8-29.6,19.9-57.4,29.3-82.4
	c3.9-0.9,10.9-2.6,15.3-9c7.6-11.4,9.9-9.1,11.7-12.6c2.3-4.4,0.8-8.4-7.4-7.4c0,0-3.1,0.2-8.8,0.9c9.1-23.3,17-43.1,22.7-58.1
	C132.8,4.6,133.1,0.9,129.9,0.1z"/>
<path class="st0" d="M116.5,151.3c2.1,5.3,8.7,3.7,6.2-2.7c-2.6-6.5-8.9-26.3-10.6-32.6c-2.3-8.6,7.5-6.2,2.6-0.6
	c-4.3,4.8-7.1,6.7-15,15.9c-7.6,8.8-5.5,20.3,2.6,22.8c9.2,2.9,17.3-7.3,22.3-14.7c4.9-7.2,0.2-11.4-4.7-7.2
	c-3.2,2.7-6.8,6.9-10.5,9.2c-3,1.8-5.3-0.1-1.3-5.6c4.6-6.4,9.8-11.7,13.7-17.7c7.9-12.3-7.7-19.3-14.4-11.4
	c-3.6,4.2-2.7,8.4-1.7,12C107.2,124.4,113.1,142.7,116.5,151.3z"/>
</svg>
